<svg width="128" height="128" xmlns="http://www.w3.org/2000/svg" xmlns:xlink="http://www.w3.org/1999/xlink" xml:space="preserve" overflow="hidden"><g transform="translate(-93 -108)"><path d="M175.933 180.8C181.533 182.8 186.867 185.067 191.267 188.667 193.133 190.133 194.2 192.267 194.2 194.667L196.6 215.333C196.733 216.267 196.333 217.2 195.533 217.733L195.533 217.733C193.267 219.2 190.867 220.4 188.333 221.2L188.333 225.467 191.933 225.467C194.2 224.533 196.467 223.467 198.467 222.133L198.467 222.133C200.867 220.533 202.2 217.6 201.8 214.667L199.667 194.533C199.533 190.667 197.8 187.067 194.733 184.667 189.8 180.533 183.933 178 177.8 175.867L171.267 173.2C170.733 172.933 170.467 172.533 170.467 172L170.467 168.8C175.533 164.8 178.467 158.667 178.467 152.133L178.467 147.333C179.267 147.867 180.2 148 181.133 148.133L178.867 141.467C178.6 140.533 178.333 139.6 178.2 138.667 177.133 131.067 172.6 125.733 166.333 122.4 165.8 122.133 165.133 122.133 164.6 122.533L163.4 123.467 162.067 121.6C161.667 121.067 161.133 120.533 160.467 120.4 159.267 120.133 158.067 120 156.867 120 146.333 120 137.533 128.267 135.667 139.067L135.667 140 135.667 140 135.667 142.267C135.667 145.2 135.133 148 133.933 150.667L131.667 156C131.667 156 133.267 155.6 135.933 154.8 136.6 160.267 139.4 165.2 143.667 168.533L143.667 171.867C143.667 172.4 143.4 172.933 142.867 173.067L136.333 175.733C130.2 177.867 124.333 180.4 119.4 184.533 116.333 186.933 114.467 190.533 114.333 194.4L112.067 214.667C111.667 217.6 113 220.533 115.4 222.133 117.4 223.467 119.667 224.533 121.933 225.467L125.667 225.467 125.667 221.333C123.133 220.4 120.733 219.333 118.467 217.867 117.667 217.333 117.267 216.4 117.4 215.467L119.667 194.933 119.667 194.667C119.667 192.267 120.867 190.133 122.733 188.667 127.133 185.067 132.467 182.8 138.067 180.8L140.2 180.133C144.067 182.533 150.2 184 157 184 163.8 184 169.933 182.533 173.933 180.133L175.933 180.8ZM141 153.2C150.067 150.133 163.133 144.8 169 137.333 170.2 139.2 171.533 140.933 173 142.667L173 152C173 160.8 165.8 168 157 168 148.6 168 141.667 161.6 141 153.2ZM146.333 177.2C147.933 176 149 174 149 171.867L149 171.733C154.067 173.867 159.933 173.867 165 171.733L165 171.867C165 173.867 165.933 175.867 167.533 177.2 164.067 178.267 160.467 178.8 156.867 178.667 153.4 178.667 149.8 178.133 146.333 177.2Z" fill="#329FC1"/><path d="M185.8 195.067C185.8 193.2 184.333 191.733 182.467 191.733L182.467 191.733 131.667 191.733C129.8 191.733 128.333 193.2 128.333 195.067L128.333 195.067 128.333 228.267 118.2 228.267 118.2 230C118.2 231.867 119.667 233.333 121.533 233.333L192.6 233.333C194.467 233.333 195.933 231.867 195.933 230L195.933 228.267 185.8 228.267 185.8 195.067ZM150.067 217.067 148.2 218.933 140.733 211.467 148.2 204 150.067 205.867 144.467 211.467 150.067 217.067ZM155.133 219.867 152.733 218.8 159 203.733 161.4 204.8 155.133 219.867ZM165.8 219.067 163.933 217.2 169.533 211.6 163.933 206 165.8 204.133 173.267 211.6 165.8 219.067Z" fill="#329FC1"/></g></svg>