<svg width="128" height="128" xmlns="http://www.w3.org/2000/svg" xmlns:xlink="http://www.w3.org/1999/xlink" xml:space="preserve" overflow="hidden"><g transform="translate(-236 -109)"><path d="M277.6 177.667C272.533 179.667 267.867 182.333 263.6 185.667 260.667 188.067 258.8 191.667 258.667 195.533L256.4 215.267C256 218.2 257.333 221.133 259.733 222.733 262.133 224.333 264.667 225.533 267.333 226.6L268.533 226.6 268.533 221.4C266.533 220.6 264.533 219.533 262.667 218.333 261.867 217.8 261.467 216.867 261.6 215.933L264 195.933 264 195.667C264.133 193.267 265.2 191.133 267.067 189.667 270.667 186.6 275.867 183.8 283.067 181.133 287.067 183.533 293.2 185 300 185 306.8 185 312.933 183.533 316.933 181.133 324.267 183.8 329.333 186.6 332.933 189.667 334.8 191.133 335.867 193.4 336 195.667L338.4 215.8C338.533 216.733 338.133 217.667 337.333 218.2L337.333 218.2C335.467 219.4 333.6 220.467 331.467 221.267L331.467 226.467 332.667 226.467C335.333 225.533 337.867 224.2 340.267 222.6L340.267 222.6C342.667 220.867 344 218.067 343.6 215.133L341.333 195.533C341.2 191.667 339.333 188.067 336.4 185.667 332.133 182.333 327.467 179.533 322.4 177.667 322.4 170.867 322.667 152.2 322.667 144.6 322.667 142.467 322.4 140.333 321.867 138.2 320.133 131.8 315.733 126.467 309.867 123.4 309.333 123.133 308.533 123.133 308.133 123.533L306.933 124.467 305.6 122.6C305.2 121.933 304.533 121.533 303.867 121.4 302.533 121.133 301.333 121 300 121 294.667 121 289.333 123 285.333 126.467 280.267 131 277.467 137.4 277.6 144.2L277.6 177.667ZM284.267 155.933 285.2 145 314.667 145 315.6 155.933C314 164.6 305.733 170.333 296.933 168.733 290.533 167.533 285.467 162.467 284.267 155.933ZM289.6 178.2C291.067 177 292 175 292 173L292 172.733C297.067 174.867 302.933 174.867 308 172.733L308 173C308 175 308.933 176.867 310.4 178.2 307.067 179.267 303.467 179.667 300 179.667 296.533 179.667 292.933 179.267 289.6 178.2Z" fill="#329FC1"/><path d="M328.8 196.067C328.8 194.2 327.333 192.733 325.467 192.733L325.467 192.733 274.667 192.733C272.8 192.733 271.333 194.2 271.333 196.067L271.333 196.067 271.333 229.267 261.2 229.267 261.2 231C261.2 232.867 262.667 234.333 264.533 234.333L335.6 234.333C337.467 234.333 338.933 232.867 338.933 231L338.933 229.267 328.8 229.267 328.8 196.067ZM293.067 218.067 291.2 219.933 283.733 212.467 291.2 205 293.067 206.867 287.467 212.467 293.067 218.067ZM298.133 220.867 295.733 219.8 302 204.733 304.4 205.8 298.133 220.867ZM308.8 220.067 306.933 218.2 312.533 212.6 306.933 207 308.8 205.133 316.267 212.6 308.8 220.067Z" fill="#329FC1"/></g></svg>